<svg width="800" height="200" viewBox="0 0 800 200" xmlns="http://www.w3.org/2000/svg">
  <defs>
    <linearGradient id="grad" x1="0%" y1="0%" x2="100%" y2="100%">
      <stop offset="0%" style="stop-color:#512DA8;stop-opacity:1" />
      <stop offset="100%" style="stop-color:#4527A0;stop-opacity:1" />
    </linearGradient>
    <style>
      .title { font-family: -apple-system, BlinkMacSystemFont, 'Segoe UI', Roboto, 'Helvetica Neue', Arial, sans-serif; font-size: 60px; font-weight: bold; fill: white; }
      .subtitle { font-family: -apple-system, BlinkMacSystemFont, 'Segoe UI', Roboto, 'Helvetica Neue', Arial, sans-serif; font-size: 24px; font-weight: 300; fill: #E0E0E0; }
    </style>
  </defs>

  <rect width="800" height="200" rx="10" ry="10" fill="url(#grad)" />

  <g transform="translate(40, 50) scale(1.1)">
    <path fill-rule="evenodd" clip-rule="evenodd" d="M49.5,16.1875 C49.5,16.1875 49.5,21.3125 49.5,21.3125 C49.5,21.3125 44.375,21.3125 44.375,21.3125 C44.375,21.3125 44.375,26.4375 44.375,26.4375 C44.375,26.4375 39.25,26.4375 39.25,26.4375 C39.25,26.4375 39.25,31.5625 39.25,31.5625 C39.25,31.5625 34.125,31.5625 34.125,31.5625 C34.125,31.5625 34.125,41.8125 34.125,41.8125 C34.125,41.8125 29,41.8125 29,41.8125 C29,41.8125 29,46.9375 29,46.9375 C29,46.9375 23.875,46.9375 23.875,46.9375 C23.875,46.9375 23.875,52.0625 23.875,52.0625 C23.875,52.0625 18.75,52.0625 18.75,52.0625 C18.75,52.0625 18.75,62.3125 18.75,62.3125 C18.75,62.3125 23.875,62.3125 23.875,62.3125 C23.875,62.3125 23.875,67.4375 23.875,67.4375 C23.875,67.4375 29,67.4375 29,67.4375 C29,67.4375 29,72.5625 29,72.5625 C29,72.5625 34.125,72.5625 34.125,72.5625 C34.125,72.5625 34.125,82.8125 34.125,82.8125 C34.125,82.8125 39.25,82.8125 39.25,82.8125 C39.25,82.8125 39.25,87.9375 39.25,87.9375 C39.25,87.9375 44.375,87.9375 44.375,87.9375 C44.375,87.9375 44.375,93.0625 44.375,93.0625 C44.375,93.0625 49.5,93.0625 49.5,93.0625 C49.5,93.0625 49.5,98.1875 49.5,98.1875 C49.5,98.1875 54.625,98.1875 54.625,98.1875 C54.625,98.1875 54.625,93.0625 54.625,93.0625 C54.625,93.0625 59.75,93.0625 59.75,93.0625 C59.75,93.0625 59.75,87.9375 59.75,87.9375 C59.75,87.9375 64.875,87.9375 64.875,87.9375 C64.875,87.9375 64.875,82.8125 64.875,82.8125 C64.875,82.8125 70,82.8125 70,82.8125 C70,82.8125 70,72.5625 70,72.5625 C70,72.5625 75.125,72.5625 75.125,72.5625 C75.125,72.5625 75.125,67.4375 75.125,67.4375 C75.125,67.4375 80.25,67.4375 80.25,67.4375 C80.25,67.4375 80.25,62.3125 80.25,62.3125 C80.25,62.3125 85.375,62.3125 85.375,62.3125 C85.375,62.3125 85.375,52.0625 85.375,52.0625 C85.375,52.0625 90.5,52.0625 90.5,52.0625 C90.5,52.0625 90.5,46.9375 90.5,46.9375 C90.5,46.9375 95.625,46.9375 95.625,46.9375 C95.625,46.9375 95.625,41.8125 95.625,41.8125 C95.625,41.8125 100.75,41.8125 100.75,41.8125 C100.75,41.8125 100.75,31.5625 100.75,31.5625 C100.75,31.5625 105.875,31.5625 105.875,31.5625 C105.875,31.5625 105.875,26.4375 105.875,26.4375 C105.875,26.4375 111,26.4375 111,26.4375 C111,26.4375 111,21.3125 111,21.3125 C111,21.3125 116.125,21.3125 116.125,21.3125 C116.125,21.3125 116.125,16.1875 116.125,16.1875 C116.125,16.1875 111,16.1875 111,16.1875 C111,16.1875 111,11.0625 111,11.0625 C111,11.0625 105.875,11.0625 105.875,11.0625 C105.875,11.0625 105.875,5.9375 105.875,5.9375 C105.875,5.9375 100.75,5.9375 100.75,5.9375 C100.75,5.9375 100.75,-4.3125 100.75,-4.3125 C100.75,-4.3125 95.625,-4.3125 95.625,-4.3125 C95.625,-4.3125 95.625,-9.4375 95.625,-9.4375 C95.625,-9.4375 90.5,-9.4375 90.5,-9.4375 C90.5,-9.4375 90.5,-14.5625 90.5,-14.5625 C90.5,-14.5625 85.375,-14.5625 85.375,-14.5625 C85.375,-14.5625 85.375,-19.6875 85.375,-19.6875 C85.375,-19.6875 80.25,-19.6875 80.25,-19.6875 C80.25,-19.6875 80.25,-24.8125 80.25,-24.8125 C80.25,-24.8125 75.125,-24.8125 75.125,-24.8125 C75.125,-24.8125 75.125,-29.9375 75.125,-29.9375 C75.125,-29.9375 70,-29.9375 70,-29.9375 C70,-29.9375 70,-35.0625 70,-35.0625 C70,-35.0625 64.875,-35.0625 64.875,-35.0625 C64.875,-35.0625 64.875,-40.1875 64.875,-40.1875 C64.875,-40.1875 59.75,-40.1875 59.75,-40.1875 C59.75,-40.1875 59.75,-45.3125 59.75,-45.3125 C59.75,-45.3125 54.625,-45.3125 54.625,-45.3125 C54.625,-45.3125 54.625,-50.4375 54.625,-50.4375 C54.625,-50.4375 49.5,-50.4375 49.5,-50.4375 C49.5,-50.4375 49.5,-45.3125 49.5,-45.3125 C49.5,-45.3125 44.375,-45.3125 44.375,-45.3125 C44.375,-45.3125 44.375,-40.1875 44.375,-40.1875 C44.375,-40.1875 39.25,-40.1875 39.25,-40.1875 C39.25,-40.1875 39.25,-35.0625 39.25,-35.0625 C39.25,-35.0625 34.125,-35.0625 34.125,-35.0625 C34.125,-35.0625 34.125,-29.9375 34.125,-29.9375 C34.125,-29.9375 29,-29.9375 29,-29.9375 C29,-29.9375 29,-24.8125 29,-24.8125 C29,-24.8125 23.875,-24.8125 23.875,-24.8125 C23.875,-24.8125 23.875,-19.6875 23.875,-19.6875 C23.875,-19.6875 18.75,-19.6875 18.75,-19.6875 C18.75,-19.6875 18.75,-14.5625 18.75,-14.5625 C18.75,-14.5625 13.625,-14.5625 13.625,-14.5625 C13.625,-14.5625 13.625,-9.4375 13.625,-9.4375 C13.625,-9.4375 8.5,-9.4375 8.5,-9.4375 C8.5,-9.4375 8.5,-4.3125 8.5,-4.3125 C8.5,-4.3125 3.375,-4.3125 3.375,-4.3125 C3.375,-4.3125 3.375,5.9375 3.375,5.9375 C3.375,5.9375 8.5,5.9375 8.5,5.9375 C8.5,5.9375 8.5,11.0625 8.5,11.0625 C8.5,11.0625 13.625,11.0625 13.625,11.0625 C13.625,11.0625 13.625,16.1875 13.625,16.1875 C13.625,16.1875 18.75,16.1875 18.75,16.1875 C18.75,16.1875 18.75,21.3125 18.75,21.3125 C18.75,21.3125 23.875,21.3125 23.875,21.3125 C23.875,21.3125 23.875,26.4375 23.875,26.4375 C23.875,26.4375 29,26.4375 29,26.4375 C29,26.4375 29,31.5625 29,31.5625 C29,31.5625 34.125,31.5625 34.125,31.5625 C34.125,31.5625 34.125,36.6875 34.125,36.6875 C34.125,36.6875 39.25,36.6875 39.25,36.6875 C39.25,36.6875 39.25,41.8125 39.25,41.8125 C39.25,41.8125 44.375,41.8125 44.375,41.8125 C44.375,41.8125 44.375,46.9375 44.375,46.9375 C44.375,46.9375 49.5,46.9375 49.5,46.9375 C49.5,46.9375 49.5,41.8125 49.5,41.8125 C49.5,41.8125 54.625,41.8125 54.625,41.8125 C54.625,41.8125 54.625,36.6875 54.625,36.6875 C54.625,36.6875 59.75,36.6875 59.75,36.6875 C59.75,36.6875 59.75,31.5625 59.75,31.5625 C59.75,31.5625 64.875,31.5625 64.875,31.5625 C64.875,31.5625 64.875,26.4375 64.875,26.4375 C64.875,26.4375 70,26.4375 70,26.4375 C70,26.4375 70,21.3125 70,21.3125 C70,21.3125 75.125,21.3125 75.125,21.3125 C75.125,21.3125 75.125,16.1875 75.125,16.1875 C75.125,16.1875 70,16.1875 70,16.1875 C70,16.1875 70,11.0625 70,11.0625 C70,11.0625 64.875,11.0625 64.875,11.0625 C64.875,11.0625 64.875,5.9375 64.875,5.9375 C64.875,5.9375 59.75,5.9375 59.75,5.9375 C59.75,5.9375 59.75,11.0625 59.75,11.0625 C59.75,11.0625 54.625,11.0625 54.625,11.0625 C54.625,11.0625 54.625,16.1875 54.625,16.1875 C54.625,16.1875 49.5,16.1875 49.5,16.1875 Z" fill="#FF5722"/>
  </g>

  <text x="200" y="100" class="title">Rust 100 问</text>
  <text x="205" y="145" class="subtitle">一份系统的 Rust 学习指南</text>

</svg>
